<?xml version='1.0' encoding='iso-8859-1'?>
<svg version="1.1" xmlns="http://www.w3.org/2000/svg" viewBox="0 0 368.554 368.554" xmlns:xlink="http://www.w3.org/1999/xlink" enable-background="new 0 0 368.554 368.554">
  <g>
    <path d="M184.277,0C82.667,0,0,82.666,0,184.277s82.666,184.277,184.276,184.277s184.276-82.666,184.276-184.277   S285.887,0,184.277,0z M184.277,353.554C90.938,353.554,15,277.616,15,184.277S90.938,15,184.277,15   s169.276,75.938,169.276,169.277S277.616,353.554,184.277,353.554z"/>
    <path d="m303.763,98.741c-3.975-1.153-8.138,1.134-9.293,5.112l-47.517,163.749-55.573-164.065c-1.031-3.045-3.889-5.094-7.104-5.094s-6.072,2.049-7.104,5.094l-55.572,164.065-47.517-163.749c-1.154-3.978-5.322-6.268-9.293-5.112-3.979,1.154-6.268,5.315-5.113,9.293l54.167,186.667c0.913,3.146 3.763,5.335 7.037,5.408 3.274,0.088 6.218-1.989 7.27-5.092l56.126-165.696 56.126,165.696c1.033,3.05 3.895,5.094 7.103,5.094 0.055,0 0.111,0 0.167-0.002 3.274-0.072 6.124-2.262 7.037-5.408l54.167-186.667c1.154-3.978-1.135-8.139-5.114-9.293z"/>
  </g>
</svg>
